<svg width="358" height="186" viewBox="0 0 358 186" fill="none" xmlns="http://www.w3.org/2000/svg">
<path d="M50.5 10L4.5 22C4.5 28.4 1.83333 34.6667 0.5 37V46.5C7.7 48.5 11.5 55.6667 12.5 59C15.3 62.2 36 61.6667 46 61C56 56.2 64.8333 59.3333 68 61.5H74.5L90.5 64L103.5 71H135.5L146.5 79H159C163.4 79.8 165.833 86.6667 166.5 90L178 98C182.8 102 176.667 105.333 173 106.5L127.5 132.5V146C126.7 154.8 120.833 159 118 160L126.5 164L155 157.5L170.5 163L177 160C183 159.2 195.167 163 200.5 165L210 174H216.5L222 171.5L227 171L227.5 173.5C227.1 183.9 235 182.167 239 180C241 182.4 247.5 184.333 250.5 185L258.5 179C261.3 180.6 264.667 179.667 266 179L269.5 181L286 171.5L290.5 182.5L296.5 175L320.5 161.5C319.7 156.7 322.833 153.833 324.5 153L333 159L342 170C348.4 166.4 354.667 154.167 357 148.5L302.5 142.5L186 53L156.5 39L111 12L60 1L50.5 10Z" fill="url(#paint0_linear_6_119)" stroke="white" stroke-width="0.1"/>
<defs>
<linearGradient id="paint0_linear_6_119" x1="178.75" y1="1" x2="178.75" y2="185" gradientUnits="userSpaceOnUse">
<stop stop-color="#31809A"/>
<stop offset="1" stop-color="#176B87"/>
</linearGradient>
</defs>
</svg>
