<svg width="58" height="105" viewBox="0 0 58 105" fill="none" xmlns="http://www.w3.org/2000/svg">
<path d="M7 60C7.8 56.4 6.66667 53.5 6 52.5L8 48.5V36L0.5 28.5L18.5 17V2.5L26.5 0.5C28.1 4.9 32.1667 7.33333 34 8C35.6 6.4 43 6 46.5 6C53.3 0.399996 56.3333 4.66666 57 7.5L54 14C60.8 20 54.1667 22.1667 50 22.5C52.8 26.5 49.5 39.5 47.5 45.5C44.3 52.7 46.5 54.8333 48 55C49.2 60.2 46.8333 64.8333 45.5 66.5V74.5C58.7 73.7 42.8333 87.6667 42.5 90H39L36.5 99L31 102.5L28.5 104.5L25.5 94.5C17.9 94.5 18 87.5 19 84C13 80.4 14.5 75.1667 16 73C10.4 71.4 10.6667 67.3333 11.5 65.5L7 60Z" fill="url(#paint0_linear_9_126)"/>
<path d="M45.5 66.5V74.5C58.7 73.7 42.8333 87.6667 42.5 90H39L36.5 99L31 102.5L28.5 104.5L25.5 94.5C17.9 94.5 18 87.5 19 84C13 80.4 14.5 75.1667 16 73C10.4 71.4 10.6667 67.3333 11.5 65.5L7 60C7.8 56.4 6.66667 53.5 6 52.5L8 48.5V36L0.5 28.5L18.5 17V2.5L26.5 0.5C28.1 4.9 32.1667 7.33333 34 8C35.6 6.4 43 6 46.5 6C53.3 0.399996 56.3333 4.66666 57 7.5L54 14C60.8 20 54.1667 22.1667 50 22.5C52.8 26.5 49.5 39.5 47.5 45.5C44.3 52.7 46.5 54.8333 48 55C49.2 60.2 46.8333 64.8333 45.5 66.5ZM45.5 66.5L29 70C30.6667 68.1667 36.3 64.9 45.5 66.5Z" stroke="white" stroke-width="0.1"/>
<defs>
<linearGradient id="paint0_linear_9_126" x1="28.75" y1="0.5" x2="28.75" y2="104.5" gradientUnits="userSpaceOnUse">
<stop stop-color="#176B87"/>
<stop offset="1" stop-color="#31809A"/>
</linearGradient>
</defs>
</svg>
