<svg width="141" height="158" viewBox="0 0 141 158" fill="none" xmlns="http://www.w3.org/2000/svg">
<path d="M5.49998 119.5C1.89998 117.1 1.99998 114.5 2.49998 113.5L5 111.5L10.5 108L13 99H16.5C16.9 93.4 6.33333 92.6667 1 93L0.5 77.5L3 79C7 74.6 15.6667 74.8333 19.5 75.5C22.7 70.7 22.5 65.8333 22 64C18 63.6 20.3333 56.5 22 53C26.4 39.4 25.1667 33 24 31.5C34.4 30.3 31 25.3333 28 23L31 16.5C37.4 32.9 45 27.3333 48 22.5L60 13C66.4 12.6 69.3333 8.83333 70 7C75.6 7 79.6667 5 81 4C90.6 6.4 94.6667 4 95.5 2.5L102.5 0.5L110 6L116.5 15C123.3 19 119.333 25.3333 116.5 28L112.5 36.5L119 44.5L120 48L140 64V72L131.5 76.5C137.1 86.9 131.5 94.1667 128 96.5H119.5L116.5 103L100 119.5C102.8 127.9 100.5 137.333 99 141L101 147L98.5 154L93 151L83.5 157.5L49 144L43 140.5L42 133.5C38 132.7 36 133.833 35.5 134.5C33.5 143.3 31.3333 144.5 30.5 144C15.3 135.6 10.8333 128.833 10.5 126.5C8.9 125.7 6.49999 121.5 5.49998 119.5Z" fill="url(#paint0_linear_9_127)" stroke="white" stroke-width="0.1"/>
<defs>
<linearGradient id="paint0_linear_9_127" x1="70.25" y1="0.5" x2="70.25" y2="157.5" gradientUnits="userSpaceOnUse">
<stop stop-color="#257695"/>
<stop offset="1" stop-color="#176B87"/>
</linearGradient>
</defs>
</svg>
