<svg width="216" height="171" viewBox="0 0 216 171" fill="none" xmlns="http://www.w3.org/2000/svg">
<path d="M26.5 68L21 83.5C23.8 83.1 25.1667 91 25.5 95C27.1 96.6 35.1667 95.6667 39 95L51.5 99V116C53.1 116 54.8333 119.667 55.5 121.5C64.3 121.1 65.1667 115.333 64.5 112.5C69.7 105.3 72 111.5 72.5 115.5C72.1 122.7 75.3333 124.833 77 125C78.2 128.6 73.8333 132.833 71.5 134.5C73.1 138.9 80.8333 141.667 84.5 142.5H88.5C99.7 140.5 99.5 146 98 149L93 156L84.5 166.5C84.1 168.9 85.3333 169.833 86 170L94 162L121 153L134 144L151.5 139H155C162.2 135.8 163.667 127.667 163.5 124V111.5L209 85.5C216.6 83.1 216.167 79.1667 215 77.5L202.5 69C200.9 61.4 196.833 58.5 195 58H183L171.5 50H139.5L131.5 46L126.5 43C121.5 42 115.5 41.5 110.5 40.5H104C94 35 87.1667 38 82.5 39.5C62.1 41.9 51.3333 39.5 48.5 38C47.3 31.2 40 26.8333 36.5 25.5V15.5C39.7 12.3 40.5 4.5 40.5 1L1 19L36.5 62L26.5 68Z" fill="url(#paint0_linear_6_118)" stroke="white" stroke-width="0.1"/>
<defs>
<linearGradient id="paint0_linear_6_118" x1="107.578" y1="1" x2="107.578" y2="170" gradientUnits="userSpaceOnUse">
<stop stop-color="#1D6784"/>
<stop offset="1" stop-color="#31809A"/>
</linearGradient>
</defs>
</svg>
