<svg width="216" height="171" viewBox="0 0 216 171" fill="none" xmlns="http://www.w3.org/2000/svg">
<path d="M21 83.5L26.5 68L36.5 62L1 19L40.5 1C40.5 4.5 39.7 12.3 36.5 15.5V25.5C40 26.8333 47.3 31.2 48.5 38C51.3333 39.5 62.1 41.9 82.5 39.5C87.1667 38 94 35 104 40.5H110.5C115.5 41.5 121.5 42 126.5 43L131.5 46L139.5 50H171.5L183 58H195C196.833 58.5 200.9 61.4 202.5 69L215 77.5C216.167 79.1667 216.6 83.1 209 85.5L163.5 111.5V124C163.667 127.667 162.2 135.8 155 139H151.5L134 144L121 153L94 162L86 170C85.3333 169.833 84.1 168.9 84.5 166.5L93 156L98 149C99.5 146 99.7 140.5 88.5 142.5H84.5C81.1879 141.747 74.5575 139.417 72.1269 135.73C71.6508 136.65 71.3855 136.562 71.5 134.5C71.0088 130.57 68.78 124.517 63.7707 131.134C63.7938 131.926 63.6628 132.192 63.5 131.5C63.5911 131.374 63.6813 131.252 63.7707 131.134C63.699 128.683 62.151 121.198 55.5 121.5C54.8333 119.667 53.1 116 51.5 116V99L39 95C35.1667 95.6667 27.1 96.6 25.5 95C25.1667 91 23.8 83.1 21 83.5Z" fill="url(#paint0_linear_6_118)"/>
<path d="M71.5 134.5C73.1 138.9 80.8333 141.667 84.5 142.5H88.5C99.7 140.5 99.5 146 98 149L93 156L84.5 166.5C84.1 168.9 85.3333 169.833 86 170L94 162L121 153L134 144L151.5 139H155C162.2 135.8 163.667 127.667 163.5 124V111.5L209 85.5C216.6 83.1 216.167 79.1667 215 77.5L202.5 69C200.9 61.4 196.833 58.5 195 58H183L171.5 50H139.5L131.5 46L126.5 43C121.5 42 115.5 41.5 110.5 40.5H104C94 35 87.1667 38 82.5 39.5C62.1 41.9 51.3333 39.5 48.5 38C47.3 31.2 40 26.8333 36.5 25.5V15.5C39.7 12.3 40.5 4.5 40.5 1L1 19L36.5 62L26.5 68L21 83.5C23.8 83.1 25.1667 91 25.5 95C27.1 96.6 35.1667 95.6667 39 95L51.5 99V116C53.1 116 54.8333 119.667 55.5 121.5C64.3 121.1 64.1667 134.333 63.5 131.5C68.7 124.3 71 130.5 71.5 134.5ZM71.5 134.5C73.8333 132.833 78.2 128.6 77 125C75.3333 124.833 71.1 141.7 71.5 134.5Z" stroke="white" stroke-width="0.1"/>
<defs>
<linearGradient id="paint0_linear_6_118" x1="107.578" y1="1" x2="107.578" y2="170" gradientUnits="userSpaceOnUse">
<stop stop-color="#1D6784"/>
<stop offset="1" stop-color="#31809A"/>
</linearGradient>
</defs>
</svg>
