<svg width="247" height="248" viewBox="0 0 247 248" fill="none" xmlns="http://www.w3.org/2000/svg">
<path d="M0.500088 94.5001C8.75294e-05 93.1667 1.10009 87.3001 9.50009 74.5001V66.5001L16.5001 26.5L65.0001 38.0001C73.1668 32.6667 90.8001 19.1001 96.0001 7.50007L129.5 0.500069C130.667 -0.166598 133.3 1.20007 134.5 12.0001C135.667 12.6668 140 13.6001 148 12.0001L160.5 16V33C161.667 33.6667 164 35.6001 164 38.0001C164 41 175.5 36.5 173.5 29.5C175.833 26.3333 180.7 22.9 181.5 34.5C181.333 36.6667 182 41.2 186 42C186.5 43.6667 186.1 47.9 180.5 51.5C181.667 53.6667 185.9 58.3 193.5 59.5H204C206.833 59.5 210.6 62 203 72L193.5 83.5C193.5 84.6667 193.8 87 195 87C195.5 87.6667 198.2 89.1 205 89.5L213 91C214.333 91.6667 217.1 93.5 217.5 95.5C219.333 95.6667 223 96.7 223 99.5C226.333 99.8333 233.1 104.1 233.5 118.5C233.667 121.333 236.4 127.9 246 131.5C246.167 133.333 245.6 137.3 242 138.5C239.333 141.333 234.1 147.8 234.5 151C234 152.833 232.6 156.5 231 156.5L227 152.5L213 156.5L200.5 155.5C197.333 153.167 190.4 148.6 188 149L186 146.5L185.5 144L182.5 143L183.5 148C182.833 148.333 180.5 148.5 176.5 146.5C175 145.833 170.7 145.8 165.5 151L163.5 150V146.5L159.5 142L160.5 161L149.5 166L148 157.5L141.25 159.25C141.21 159.813 140.425 159.923 139.257 159.767L134.831 160.914C136.617 162.749 138.094 164.408 138.841 165.321C139.24 165.215 139.626 165.12 139.995 165.036C148.204 156.973 150.138 159.638 142.12 164.633C145.938 164.074 146.516 164.989 140.539 165.573C139.844 165.967 139.093 166.371 138.282 166.782C136.896 168.245 135.367 169.974 133.71 172L125.5 183C126.833 183.167 129.6 184.3 130 187.5C131.5 188.167 135.1 190.8 137.5 196L141.5 197L144.5 202.5L142.5 205.5C142.167 206.667 143.1 208.8 149.5 208C150.833 208.333 152.6 212.1 149 224.5L149.5 234.5C150.167 236.667 149.2 240.8 140 240L134.5 244C131.833 244.667 126.2 245.9 125 245.5L122.5 247.5C121.167 245.667 118 241.8 116 241C116.5 239.667 117.2 236.8 116 236L118 232L119.5 229L117 225.5L119.5 222C116.5 220.333 110.5 215.7 110.5 210.5L106 207V204.5L104 202.5V200.5L100 199L99.5001 197C96.3335 196.167 90.5001 193.3 92.5001 188.5C94.0001 186 95.3001 181.2 88.5001 182C87.0001 181.333 83.3001 178.4 80.5001 172L73.0001 157.5L69.5001 155.5L69.0001 153.5H67.0001L64.0001 145L56.0001 138C54.6668 136.833 52.4001 133.6 54.0001 130L46.5001 124L45.5001 123.5L44.0001 120L42.0001 117.5L38.0001 109L37.5001 106.5L34.5001 105C33.3335 102.833 30.4001 98.4 28.0001 98L27.5001 94L20.5001 92C20.0001 93.5 18.5001 95.6 16.5001 92L6.50012 93C6.5001 91.1667 5.30006 88.9001 0.500088 94.5001Z" fill="url(#paint0_linear_6_117)"/>
<path d="M149.5 166L160.5 161L159.5 142L163.5 146.5V150L165.5 151C170.7 145.8 175 145.833 176.5 146.5C180.5 148.5 182.833 148.333 183.5 148L182.5 143L185.5 144L186 146.5L188 149C190.4 148.6 197.333 153.167 200.5 155.5L213 156.5L227 152.5L231 156.5C232.6 156.5 234 152.833 234.5 151C234.1 147.8 239.333 141.333 242 138.5C245.6 137.3 246.167 133.333 246 131.5C236.4 127.9 233.667 121.333 233.5 118.5C233.1 104.1 226.333 99.8333 223 99.5C223 96.7 219.333 95.6667 217.5 95.5C217.1 93.5 214.333 91.6667 213 91L205 89.5C198.2 89.1 195.5 87.6667 195 87C193.8 87 193.5 84.6667 193.5 83.5L203 72C210.6 62 206.833 59.5 204 59.5H193.5C185.9 58.3 181.667 53.6667 180.5 51.5C186.1 47.9 186.5 43.6667 186 42C182 41.2 181.333 36.6667 181.5 34.5C180.7 22.9 175.833 26.3333 173.5 29.5C175.5 36.5 164 41 164 38.0001C164 35.6001 161.667 33.6667 160.5 33V16L148 12.0001C140 13.6001 135.667 12.6668 134.5 12.0001C133.3 1.20007 130.667 -0.166598 129.5 0.500069L96.0001 7.50007C90.8001 19.1001 73.1668 32.6667 65.0001 38.0001L16.5001 26.5L9.50009 66.5001V74.5001C1.10009 87.3001 8.75294e-05 93.1667 0.500088 94.5001C5.30006 88.9001 6.5001 91.1667 6.50012 93L16.5001 92C18.5001 95.6 20.0001 93.5 20.5001 92L27.5001 94L28.0001 98C30.4001 98.4 33.3335 102.833 34.5001 105L37.5001 106.5L38.0001 109L42.0001 117.5L44.0001 120L45.5001 123.5L46.5001 124L54.0001 130C52.4001 133.6 54.6668 136.833 56.0001 138L64.0001 145L67.0001 153.5H69.0001L69.5001 155.5L73.0001 157.5L80.5001 172C83.3001 178.4 87.0001 181.333 88.5001 182C95.3001 181.2 94.0001 186 92.5001 188.5C90.5001 193.3 96.3335 196.167 99.5001 197L100 199L104 200.5V202.5L106 204.5V207L110.5 210.5C110.5 215.7 116.5 220.333 119.5 222L117 225.5L119.5 229L118 232L116 236C117.2 236.8 116.5 239.667 116 241C118 241.8 121.167 245.667 122.5 247.5L125 245.5C126.2 245.9 131.833 244.667 134.5 244L140 240C149.2 240.8 150.167 236.667 149.5 234.5L149 224.5C152.6 212.1 150.833 208.333 149.5 208C143.1 208.8 142.167 206.667 142.5 205.5L144.5 202.5L141.5 197L137.5 196C135.1 190.8 131.5 188.167 130 187.5C129.6 184.3 126.833 183.167 125.5 183L133.71 172C151.71 150 154.5 163 125 172C141.605 159.89 158 166 129.5 166M149.5 166C148.5 189 154.3 176.4 149.5 166ZM149.5 166L148 157.5L134.5 161C149 177 126.9 149.7 122.5 152.5M122.5 152.5L129.5 166M122.5 152.5L133.71 159.781L129.5 166M122.5 152.5L128.105 156.14M129.5 166L126 159.25L128.105 156.14M128.105 156.14C130.272 156.807 144.05 146.05 141.25 159.25C141.083 161.583 128.105 156.14 128.105 156.14Z" stroke="white" stroke-width="0.1"/>
<defs>
<linearGradient id="paint0_linear_6_117" x1="123.212" y1="0.359375" x2="123.212" y2="247.5" gradientUnits="userSpaceOnUse">
<stop stop-color="#35738B"/>
<stop offset="1" stop-color="#31809A"/>
</linearGradient>
</defs>
</svg>
