<svg width="242" height="165" viewBox="0 0 242 165" fill="none" xmlns="http://www.w3.org/2000/svg">
<path d="M108.5 152L107 154.5C97 149.7 84.1667 151.167 79 152.5C76.6 154.5 74.3333 157.333 73.5 158.5C62.3 158.9 51.1667 162.333 47 164C39.8 160 41 154.333 42.5 152C41.7 138.4 40.5 135 40 135L42.5 121L42 116.5L38 117.5C35.2 116.7 34.1667 115.167 34 114.5C38.8 110.9 38 106 37 104L33 99.5L37 103.5C39 103.1 40.1667 99.6667 40.5 98C40.1 95.2 45.3333 88.5 48 85.5C51.6 83.9 52.1667 80.1667 52 78.5C42.8 74.9 39.8333 68.6667 39.5 66C39.1 51.6 32.3333 47 29 46.5C28.6 43.3 25.1667 42.5 23.5 42.5C22.7 40.1 20.1667 38.5 19 38L11 36.5C4.6 36.1 1.66667 34.6667 1 34L9 26L36 17L49 8L66.5 3.0001H69L77.5 7L106 0.5L121.5 6L128 3.0001C133.2 2.2001 145.833 6.0001 151.5 8.0001L161 17.0001H167.5L173 14.5001L178 14.0001L178.5 16.5001C178.1 26.9001 186 25.1668 190 23.0001C191.2 25.0001 198.5 27.1668 202 28.0001L209 22.0001C212.6 23.6001 215.833 22.6668 217 22.0001L220.5 24.0001L237 14.5001L241.5 25.5001L234 32.0001L237 36.5001L225 47.5001C212.6 47.5001 205.833 52.8334 204 55.5001L200 57.5001L202 71.0001L189 87.5001C187.4 92.7001 184 95.0001 182.5 95.5001H180L176.5 98.5001L172 99.5001L150 116.5C150 120.1 148.667 121.333 148 121.5H142L139 127.5L140.5 135.5H136L133.5 134H130.5L128 138.5V139.5L130.5 143C132.1 145.8 129.833 146.5 128.5 146.5L121.5 147.5C119.1 149.1 114.833 151.167 113 152H108.5Z" fill="url(#paint0_linear_9_122)" stroke="white" stroke-width="0.1"/>
<defs>
<linearGradient id="paint0_linear_9_122" x1="121.25" y1="0.5" x2="121.25" y2="164" gradientUnits="userSpaceOnUse">
<stop stop-color="#176B87"/>
<stop offset="1" stop-color="#31809A"/>
</linearGradient>
</defs>
</svg>
