<svg width="239" height="223" viewBox="0 0 239 223" fill="none" xmlns="http://www.w3.org/2000/svg">
<path d="M30.5 133L26.5 126.5L29 124.5C33.4 124.1 37.1667 123.333 38.5 123L44 119C53.2 119.4 54.1667 115.5 53.5 113.5L53 103.5C56.6 92.3 54.8333 87.8333 53.5 87C47.5 87.8 46.3333 85.6667 46.5 84.5L48.5 81.5L45.5 76L41.5 75C41.1 71.4 36.3333 67.8333 34 66.5C33.6 63.7 30.8333 62.3333 29.5 62L24.5 59.5L20.5 62C22.1 59.2 20.1667 55.5 19 54C16.2 51.2 17.1667 46.8333 18 45V41.5V38.5H15C7.4 38.9 9.16667 31.5 9 29C11.8 15.4 8.16667 11 6 10.5H0.5V8L8 6.5L18 2.5C22 -0.7 26.6667 2.83333 28.5 5L34 6L43 1C47.4 10.2 52.5 15.5 54.5 17L62.5 17.5L63.5 21L67 22H70.5L74 23C78.4 18.2 78.6667 25 80.5 25.5C82.5 27.1 86 27.1667 87.5 27L86.5 22L89.5 23L90 25.5L93.5 27C95.1 26.6 102.5 31.1667 106 33.5L117 35.5L131 31.5L135 36C137.4 41.2 134 45.1667 132 46.5C132.4 48.1 134.833 49.1667 136 49.5L140 48.5L140.5 53L138 67C139.2 67.4 140.167 78.5 140.5 84C136.9 90 142 94.5 145 96C153.8 92.4 166.333 90.8333 171.5 90.5C171.5 89.6999 175.167 86.1667 177 84.5001C189.4 81.3001 200.833 84.5001 205 86.5001C216 86.0001 217 91.0001 216 91.5001C215.2 91.9001 215.333 98.3334 215.5 101.5C214.7 107.1 217.5 108.167 219 108C226.2 107.6 228 113.167 228 116C228.4 117.6 233.833 123 236.5 125.5C239.3 126.7 238.333 129.667 237.5 131L233.5 135.5C235.1 139.1 234.167 142 233.5 143L233 155.5C231.8 155.9 227.5 155.333 225.5 155C221.9 155 221.667 158.667 222 160.5C224.8 166.1 222.167 169.167 220.5 170L202 178C197.2 178.4 198.667 181.167 200 182.5L207 185C211 186.6 209.667 188.333 208.5 189L194.5 196.5C192.9 200.9 182.167 208 177 211C175.5 213.833 172.3 219.3 171.5 218.5C170.7 217.7 167.833 217.5 166.5 217.5L161.5 215.5L153 220.5C149.8 223.3 146.667 221.667 145.5 220.5V217L144 209.5C136.8 208.7 136.333 205.5 137 204L139 197.5C141 191.9 135.833 191.5 133 192L119.5 196L116 191.5C107.6 192.3 103.5 189.5 102.5 188L93.5 178C92.3 179.6 86.3333 180 83.5 180C83.9 177.6 82 174 81 172.5C77 170.9 74.6667 163.5 74 160C72.8 160 71.1667 158.333 70.5 157.5C67.7 156.7 61.3333 151.5 58.5 149C57.3 149 53.3333 147 51.5 146C50.3 145.2 49 145.333 48.5 145.5L46 142.5H44L40 138.5L37.5 139V140.5C33.1 141.7 29.6667 136.667 28.5 134L30.5 133Z" fill="url(#paint0_linear_6_121)" stroke="white" stroke-width="0.1"/>
<defs>
<linearGradient id="paint0_linear_6_121" x1="119.431" y1="1" x2="119.431" y2="222.046" gradientUnits="userSpaceOnUse">
<stop stop-color="#236984"/>
<stop offset="1" stop-color="#31809A"/>
</linearGradient>
</defs>
</svg>
