<svg width="162" height="170" viewBox="0 0 162 170" fill="none" xmlns="http://www.w3.org/2000/svg">
<path d="M148.5 13.5L135.5 0.5L128 7L131 11.5L119 22.5C106.6 22.5 99.8333 27.8333 98 30.5L94 32.5L96 46L83 62.5C81 68.1 77.8333 70.1667 76.5 70.5H74L70.5 73.5L66 74.5L44 91.5C44 95.1 42.6667 96.3333 42 96.5H36L33 102.5L34.5 110.5H30L27.5 109H24.5L22 113.5V114.5L24.5 118C26.1 120.8 23.8333 121.5 22.5 121.5L15.5 122.5L7 127H2.5L1 129.5C2.83333 129.333 7.2 129.4 10 131C12.8 132.6 12.5 134 12 134.5C11.2 135.3 11.3333 141.5 11.5 144.5C10.7 149.7 13.1666 151 14.5 151C22.1 150.2 24 156 24 159C24 160.2 29.6666 165.833 32.5 168.5C32.9 168.5 33.6666 169.167 34 169.5L41.5 161.5C51.9 167.9 65.1666 166.5 70.5 165L75.5 166.5C79.9 168.1 79.3333 165.5 78.5 164L76.5 160L77 153.5L81.5 150C82.7 145.2 93.3333 142.667 98.5 142C104.9 141.6 108.5 138.167 109.5 136.5L112.5 135C114.1 129.4 118.833 127.667 121 127.5C129.8 127.9 137 127.667 139.5 127.5C146.7 129.1 148.5 127.833 148.5 127V118L146 113.5C147.2 111.5 146.5 109.667 146 109C140.4 101.8 134.667 93.3333 132.5 90L133.5 78.5C138.7 77.7 144.667 70.5 147 67C152.6 66.6 153.333 64.8333 153 64L152.5 57.5L146.5 52.5L144 51.5C144 42.3 149 39.6667 151.5 39.5C157.1 44.7 160.167 41.6667 161 39.5L150.5 27.5V25.5L148.5 20.5V13.5Z" fill="url(#paint0_linear_9_123)" stroke="white" stroke-width="0.1"/>
<defs>
<linearGradient id="paint0_linear_9_123" x1="81" y1="0.5" x2="81" y2="169.5" gradientUnits="userSpaceOnUse">
<stop stop-color="#053B50"/>
<stop offset="1" stop-color="#31809A"/>
</linearGradient>
</defs>
</svg>
