<svg width="500" height="465" viewBox="0 0 500 465" fill="none" xmlns="http://www.w3.org/2000/svg">
<path d="M90.5 3L67 0.5C61.4 14.1 49.6667 1.5 47 3L39.5 5H34.5C30.1 7.4 30 11.6667 30.5 13.5L6.5 27L0.5 34.5L13.5 47.5V54.5L15.5 59.5V61.5L26 73.5L32.5 78.5L35.5 86L50.5 94L56 94.5L67 103.5H75L98.5 115.5L106 114L115.5 124L128.5 128C132.9 129.6 135 134.667 135.5 137V195.5L156.5 198.5L163 202L167 217.5L164 224C166.8 226 160.5 272.5 157 295.5L148.5 313.5L154.5 321L158 319L168.5 320L153.5 329.5L148.5 340L151.5 343V357.5L165.5 372L137.5 436.5L342.5 437.5L347.5 464.5L471.5 416.5L499.5 323.5L480 292L471.5 300L358 282L338.5 251.5L335.5 229C330.3 232.6 323 227.667 322.5 225.5V217.5C319.3 216.7 317.5 217.833 317 218.5C316.2 217.3 313.333 217 312 217C310 215.4 306.833 214.667 305.5 214.5C303.9 216.1 302.5 215.5 302 215V211L306.5 206.5L305.5 205.5C293.1 210.3 288 202.167 287 197.5L285 201L288.5 204C287.7 205.6 286.167 205.333 285.5 205C283.5 203.8 281.667 200.5 281 199H283L281 195.5C281.8 194.7 281.667 194.5 281.5 194.5H278C278 192.1 272 183.833 269 180L267.5 168L258.5 159H256.5L254 156L255.5 154L248.5 144.5L249 142L244 139.5V134L246.5 132L250 137C260.8 127 252.5 120.5 247 118.5V116L245.5 115.5L244 110C246.4 107.2 244.667 104.5 243.5 103.5C235.9 103.9 229 96.6667 226.5 93V86.5L222 87L221.5 90.5H219.5C218.3 85.7 212.667 82.5 210 81.5V79C209.2 77 212 76.1667 213.5 76C213.5 73.2 206.5 71.8333 203 71.5C201 69.1 197.833 68.8333 196.5 69L193 65L195.5 61L190 55C190.4 52.6 188.167 51.6667 187 51.5L183 48C185.8 43.6 181.833 40.1667 179.5 39C179.5 31.8 176.167 29 174.5 28.5L156.5 22.5L149.5 18L144.5 10L134 5.5L94 1L90.5 3Z" fill="url(#paint0_linear_10_131)" stroke="white" stroke-width="0.1"/>
<defs>
<linearGradient id="paint0_linear_10_131" x1="250" y1="0.5" x2="250" y2="449.5" gradientUnits="userSpaceOnUse">
<stop stop-color="#105068"/>
<stop offset="1" stop-color="#31809A"/>
</linearGradient>
</defs>
</svg>
