<svg width="278" height="366" viewBox="0 0 278 366" fill="none" xmlns="http://www.w3.org/2000/svg">
<path d="M83 297L75.5 291.5C72.7 283.1 67.6667 279 65.5 278L63.5 271L65.5 267V254.5L69.5 249.5L67.5 238V225C65.5 221.8 58 222.667 54.5 223.5C49.7 224.7 46.5 220.667 45.5 218.5C42.7 225.7 44.3333 220.833 45.5 217.5C48.7 208.7 45.5 206.167 43.5 206C39.9 206.4 34.3333 205.167 32 204.5C21.6 206.1 18 202.5 17.5 200.5L12 186C11.2 189.6 11.3333 187.167 11.5 185.5V183L11 181C11 179.4 8.66667 174.333 7.5 172C4.3 170.8 1.83333 167.5 1 166C2.2 164.8 2.16667 161.167 2 159.5L2.5 147C4.1 144.6 3.16667 141 2.5 139.5L6.5 135C7.7 133 7.33333 131.167 7 130.5L14.5 122.5C24.5 128.9 38 127.5 43.5 126L48.5 127.5C52.1 129.1 52.3333 127.167 52 126L49.5 121L50 114.5L54.5 111C56.1 106.2 66.1667 103.667 71 103C77.4 103 81.3333 99.3333 82.5 97.5L85.5 96C87.5 90 92 88.5 94 88.5H96.5C97.3 88.9 107.5 88.6667 112.5 88.5C118.1 89.7 120.833 89 121.5 88.5V79L119 74.5C120.2 72.5 119.5 70.6667 119 70L105.5 51L106.5 39.5C111.3 39.1 117.5 31.6667 120 28C124.8 27.6 126 26.1667 126 25.5L125.5 18.5L119.5 13.5L117 12.5C116.6 3.7 121.833 0.833333 124.5 0.5C129.7 5.7 133 2.66667 134 0.5L140.5 5.5L143.5 13L158.5 21L164 21.5L175 30.5H183L206.5 42.5L214 41L223.5 51L236.5 55C241.7 57.4 243.333 62.3333 243.5 64.5V122.5L264.5 125.5L271 129L275 144.5L272 151.5C274.4 158.3 268.333 201.667 265 222.5L259.5 241L262.5 248L266 246L277.5 247L263.5 258.5L259.5 267V270V284L277.5 299L259.5 364L135 365.5L126.5 363.5L111.5 354.5L105.5 349.5L93 339L92 335.5L85.5 327.5L89.5 319L90.5 317.5C95.7 311.5 92 307.333 89.5 306L83 297Z" fill="#31809A" stroke="white" stroke-width="0.1"/>
</svg>
