<svg width="224" height="195" viewBox="0 0 224 195" fill="none" xmlns="http://www.w3.org/2000/svg">
<path d="M149 8C150.2 6.4 150.167 3.33333 150 2V1.5C149.2 1.9 144.667 1.33333 142.5 1C138.9 1 138.667 4.66667 139 6.5C142.2 12.5 131.667 15.1667 129.5 16L119 24C114.2 24.4 115.667 27.1667 117 28.5L110 32C114 33.6 101 34.5 106.5 38L103 42.5C102.2 46.5 99.5 53.8333 94 57L90.5 63C89.7 64.2 88.8333 64.5 88.5 64.5C87.7 63.7 84.8333 63.5 83.5 63.5L78.5 61.5L70 66.5C66.8 69.3 63.6667 67.6667 62.5 66.5V63L61 55.5C53.8 54.7 56.8333 52 57.5 50.5L63.5 42.5C65.5 37.7 53.3333 35.1667 50.5 35.5L36.5 42L33 37.5C25 38.3 20.6667 35.5 19.5 34L18.5 33L10.5 24C8.1 25.6 2.83333 26 0.5 26L7.5 37L6 40L17 55V58.5C20.2 59.3 19.3333 67.5 18.5 71.5C19.8333 70.8333 21.8 70 19 72C16.2 74 17.1667 79.5 18 82L13 83.5L14.5 90.5L19 97.5L20 105.5L24.5 111.5L20 115.5C22 122.3 37.1667 144 44.5 154C47.3 158 54.3333 160.667 57.5 161.5L84 177V180L87 183.5C95.4 180.7 96.1667 188 95.5 192L101 194.5L103 190.5V178L95.5 170.5L113.5 159V144.5L121.5 142.5C123.5 147.3 127.333 149.5 129 150C131.4 148.4 138.333 148 141.5 148C147.9 142.4 151.167 146.333 152 149C153.6 153.4 155.667 156.167 156.5 157C160.5 163.8 166.5 158.833 169 155.5L181 146C187 146 190.167 142 191 140C197 140 200.833 138 202 137L205.5 137.5C212.3 139.1 215.667 136.833 216.5 135.5L223.5 133.5C220.3 124.7 215.5 120.833 213.5 120L211.5 113L213.5 109V96.5L217.5 91.5L216.5 85L215.5 80V67C213.9 63.8 206.5 64.6667 203 65.5C197.4 66.7 194.333 62.6667 193.5 60.5C192.167 63.8333 190.3 68.3 193.5 59.5C196.7 50.7 193.5 48.1667 191.5 48C187.9 48.4 182.333 47.1667 180 46.5C169.2 48.1 171.833 41.5 171.5 39.5L169 26C168.47 28.5 162.6 28 163 24C163.75 16.5 157 16.8333 155.5 14C152.3 12.8 149.833 9.5 149 8Z" fill="url(#paint0_linear_9_124)" stroke="white" stroke-width="0.1"/>
<defs>
<linearGradient id="paint0_linear_9_124" x1="112" y1="1" x2="112" y2="194.5" gradientUnits="userSpaceOnUse">
<stop stop-color="#327792"/>
<stop offset="1" stop-color="#176B87"/>
</linearGradient>
</defs>
</svg>
