<svg width="1736" height="909" viewBox="0 0 1736 909" fill="none" xmlns="http://www.w3.org/2000/svg">
<g clip-path="url(#clip0_153_35)">
<rect width="1397" height="906" transform="translate(171)" fill="white"/>
<path d="M1568 0H171V906H1568V0Z" fill="#020405" fill-opacity="0.4"/>
<path d="M1171.21 515.448H1167.82L1172.67 537.837L1194.5 569.677L1304.12 587.588L1312.37 578.633L1332.26 610.474L1302.18 695.55L1178.97 737.341L1118.83 750.277L1052.37 755.75L1011.14 777.143L974.275 822.417L966.514 827.392L958.268 826.397L946.626 812.466C935.372 816.049 904.425 811.637 890.358 808.984L879.686 805.999C861.448 803.611 855.595 806.33 854.948 807.989C849.515 804.407 844.923 806.497 843.306 807.989L837.97 805.999L834.575 808.984L830.694 807.989L827.299 811.472C824.194 808.288 821.478 808.818 820.508 809.482L806.441 801.521L796.74 807.989C799.844 813.163 796.416 824.075 794.314 828.885L796.74 830.874C794.411 830.874 794.799 834.524 795.284 836.348L791.889 834.358L790.919 840.327C784.71 840.726 782.187 845.469 781.702 847.79L774.911 848.785C776.852 849.183 776.69 864.54 776.367 872.169C764.725 878.139 770.546 889.914 774.911 895.055V906H1156.66V895.552C1155.5 892.368 1159.41 891.904 1161.51 892.07L1178.49 884.109C1172.67 855.851 1190.62 846.463 1200.32 845.303L1205.17 840.327C1209.44 840.726 1224.09 834.524 1230.88 831.373L1239.61 833.86L1245.43 828.885C1252.8 829.681 1256.27 826.231 1257.07 824.407L1265.32 822.914C1277.35 822.119 1281.32 822.583 1281.81 822.914C1295.39 829.681 1305.9 817.774 1309.46 810.974L1310.91 805.999C1307.81 805.601 1307.68 801.853 1308 800.028C1311.5 798.835 1316.25 790.907 1318.19 787.093L1331.29 783.611L1335.65 785.103V783.611C1338.37 780.824 1350.04 782.45 1355.54 783.611C1360.97 780.028 1363.95 774.158 1364.76 771.67C1367.08 772.068 1368.64 765.534 1369.12 762.217C1366.79 748.684 1383.99 742.316 1392.89 740.824C1396.77 738.834 1407.76 738.668 1412.78 738.834C1418.99 738.436 1419.57 735.683 1419.08 734.356C1420.64 734.356 1417.79 727.059 1416.17 723.411C1418.89 719.43 1416.34 715.118 1414.72 713.46V705.5L1413.26 703.51C1417.92 702.714 1419.4 689.911 1419.57 683.609L1425.39 677.639V673.659C1428.11 674.455 1431.05 669.679 1432.18 667.191C1436.45 664.007 1437.52 666.196 1437.52 667.689L1435.09 673.161L1439.94 676.146H1447.22C1448.77 676.146 1450.13 671.171 1450.61 668.683C1452.17 668.683 1453.2 664.372 1453.52 662.216C1455.85 662.216 1458.05 660.889 1458.86 660.226V654.256C1458.47 649.877 1470.34 638.501 1476.32 633.36C1481.75 632.564 1487.31 625.068 1489.42 621.42C1488.64 617.837 1491.68 614.288 1493.3 612.961C1492.91 611.768 1495.72 608.152 1497.18 606.494C1497.57 604.106 1499.29 601.187 1500.09 600.026C1507.85 587.29 1505.59 582.448 1503.49 581.618L1492.81 579.628L1481.66 569.677C1482.43 563.707 1476.49 560.556 1473.41 559.727C1474.19 558.135 1469.53 551.767 1467.11 548.782L1459.83 540.822C1460.22 538.036 1458.05 537.338 1456.92 537.338L1448.19 532.363C1442.37 535.548 1435.74 531.701 1433.15 529.378L1421.02 528.881L1417.63 525.896C1395.9 526.692 1378.5 508.649 1372.52 499.527C1367.47 496.741 1360.07 481.119 1356.99 473.656L1356.51 447.785C1354.57 447.785 1353.11 444.801 1352.63 443.308C1358.45 440.92 1359.91 430.041 1359.91 424.9C1357.58 424.9 1357.31 422.578 1357.48 421.417H1360.39L1361.85 419.427L1358.45 416.939L1362.82 413.955H1360.39L1357.48 411.964L1353.6 418.431H1350.69L1349.23 417.437L1348.75 420.422L1343.9 427.885C1344.29 434.651 1333.39 441.981 1327.89 444.8C1325.56 443.607 1323.04 446.292 1322.07 447.785L1304.61 468.184V469.178L1290.06 478.134L1286.66 478.631C1285.88 482.214 1280.84 486.758 1278.41 488.582L1259.5 503.01C1258.33 507.786 1254.16 511.302 1252.22 512.463L1243.49 513.458L1238.15 514.453L1235.24 511.965L1225.06 510.473C1224.28 509.279 1220.53 508.98 1218.75 508.98L1213.9 507.985L1210.99 509.477C1210.99 508.284 1209.05 507.985 1208.08 507.985C1206.14 507.189 1204.36 507.653 1203.71 507.985L1205.65 509.976H1199.35L1194.98 507.985C1191.1 512.363 1183.02 516.112 1179.46 517.439C1176.74 519.031 1173.8 518.101 1172.67 517.439L1174.12 516.443L1171.21 515.448Z" fill="url(#paint0_linear_153_35)"/>
<path d="M480.474 33.8485C485.131 21.1129 478.534 4.828 474.653 2.00891L1568 3.50137V469.148C1564.9 469.546 1560.56 465.997 1558.78 464.173C1556.07 464.571 1548.28 462.349 1544.72 461.188C1539.67 461.586 1538.41 458.369 1538.41 456.71C1534.92 451.537 1532.1 454.555 1531.13 456.71L1532.59 460.691L1524.83 456.71H1513.19L1507.37 458.203L1502.52 454.721L1495.72 456.71L1488.93 452.731C1476.9 461.487 1465.49 453.726 1461.28 448.751H1455.46C1450.42 445.169 1436.55 447.259 1430.24 448.751C1424.42 437.309 1416.66 447.259 1417.63 445.766C1418.4 444.572 1416.01 441.952 1414.72 440.791C1399.58 442.383 1395.8 435.153 1395.8 431.339C1392.31 430.941 1392.08 425.203 1392.4 422.385C1388.14 419.599 1387.07 412.601 1387.07 409.45C1391.34 397.908 1380.11 384.078 1373.97 378.606C1370.87 380.198 1358.77 378.606 1353.11 377.611C1353.11 379.202 1347.61 379.932 1344.87 380.098C1342.15 385.67 1331.12 387.063 1325.95 387.063C1327.5 400.197 1315.93 398.505 1309.94 396.017L1292 406.963H1282.78C1280.84 402.584 1275.5 402.816 1273.08 403.48L1268.23 398.007L1255.62 396.515C1245.53 401.291 1237.18 395.52 1234.27 392.038C1235.44 387.66 1232.17 385.902 1230.39 385.57L1208.08 377.611L1194.98 368.158L1198.86 366.666C1197.7 367.064 1191.91 360.531 1189.16 357.214C1187.22 358.407 1184.15 356.716 1182.85 355.722C1180.14 356.119 1173.64 350.912 1170.73 348.259C1150.94 353.432 1144.37 346.103 1143.56 341.792C1140.46 340.996 1139.68 339.138 1139.68 338.31V331.345C1131.92 327.763 1129.66 314.927 1129.5 308.958L1126.59 306.47C1121.93 305.675 1119.15 301.164 1118.34 299.008L1112.03 291.048C1114.36 283.487 1111.06 277.616 1109.12 275.626L1090.21 255.727C1092.53 248.961 1088.59 246.274 1086.33 245.777C1081.28 249.359 1075.17 248.928 1072.74 248.264C1071.97 251.05 1065.31 254.4 1062.07 255.727C1060.94 253.572 1058.29 249.061 1056.74 248.264C1055.18 247.469 1046.71 246.274 1042.67 245.777L1036.36 239.31C1045.68 251.249 1036.69 253.903 1031.03 253.737L1028.12 257.22C1028.12 255.229 1022.62 253.405 1019.87 252.742L1015.51 246.274L1018.42 253.737L1022.3 255.727C1024.63 256.92 1023.91 258.878 1023.27 259.707L1007.74 252.742L1015.51 264.184L1006.77 275.129C1004.45 273.139 998.69 272.973 996.103 273.139L988.827 280.601H991.737L992.708 283.586C1002.41 275.228 1004.51 288.395 1004.35 296.023C1008.62 297.615 1010.98 303.983 1011.63 306.968C1013.95 304.978 1015.83 313.103 1016.48 317.415H988.827L983.006 309.455L984.947 303.983L977.67 295.029L938.38 290.054L934.984 292.043L859.799 284.581L747.262 195.034L719.614 181.602L674.502 154.24L624.055 143.296L615.324 151.752L531.892 175.145L571.182 222.395L556.63 230.852L550.809 246.788L518.31 252.758C513.265 264.3 495.997 277.948 488.235 283.586L463.012 277.137L441.669 273.636C437.788 270.452 430.997 285.244 428.087 293.038C431.191 300.6 422.266 320.068 417.415 328.857C421.296 338.409 414.505 346.767 410.624 349.751L409.654 353.732C407.714 349.751 403.671 350.415 401.893 351.244C402.281 349.652 398.174 346.269 396.072 344.776C381.52 343.285 384.916 328.857 380.55 328.36C377.057 327.962 369.393 319.902 365.998 315.923C366.645 309.787 367.065 297.416 363.573 297.018C360.08 296.621 356.944 292.541 355.811 290.551C351.543 288.561 348.858 282.093 348.05 279.108L344.655 278.114C346.595 272.94 338.349 252.41 333.983 242.792L329.133 235.33C326.869 232.842 322.827 227.27 324.767 224.883C326.707 222.494 323.312 221.566 321.372 221.401C327.58 216.227 323.312 215.264 320.401 215.43L322.827 207.471C320.11 203.093 323.959 200.341 326.222 199.511H329.133L330.103 202.496C334.371 201.7 338.672 205.481 340.289 207.471L347.08 208.465C347.468 206.476 349.829 205.978 350.961 205.978C355.229 205.978 358.884 202.993 360.177 201.501L364.543 207.471C369.975 203.889 374.891 203.989 376.669 204.486C382.49 204.884 392.677 202.662 397.042 201.501C423.042 195.134 436.656 150.426 440.214 128.868H446.034C446.034 118.123 450.562 113.777 452.825 112.949C449.721 111.357 454.766 102.667 457.676 98.5215L463.012 88.0744V82.1045L468.348 81.1095C467.959 66.384 479.504 55.7378 485.325 52.2555C479.504 45.0916 479.666 36.9992 480.474 33.8485Z" fill="url(#paint1_linear_153_35)"/>
<path d="M389.281 14.9444C397.818 16.5366 404.803 11.6277 407.229 8.97424H416.445L409.169 13.4519C405.288 19.4221 399.145 20.583 396.557 20.4172C391.901 21.6112 398.498 30.865 402.378 35.3427C397.204 33.9276 389.348 34.5041 384.94 35.1155C384.932 35.1904 384.924 35.2662 384.916 35.3427C383.751 46.0891 366.968 47.449 358.722 46.7856L356.296 53.2534L350.961 48.7757C336.991 49.9698 330.588 44.298 329.133 41.3129C329.133 33.7507 327.192 30.2017 326.222 29.3725C332.431 33.7507 334.953 31.1968 335.438 29.3725C335.05 33.7507 338.834 36.5036 340.774 37.3328C349.7 38.5268 360.339 42.4738 364.543 44.298L370.849 37.3328C369.296 34.9447 363.411 32.6893 360.662 31.8601C351.737 32.2581 347.888 28.7091 347.08 26.8849C352.901 29.671 354.356 21.4122 354.356 16.9345C374.923 21.3127 386.209 17.432 389.281 14.9444Z" fill="url(#paint2_linear_153_35)"/>
<path d="M1104.27 431.368C1106.21 432.163 1107.67 435.016 1108.15 436.342C1110.48 437.138 1111.39 428.714 1111.55 424.402C1113.1 420.422 1109.61 418.431 1107.67 417.934C1101.07 416.74 1103.3 422.743 1105.24 425.894C1103.69 427.884 1103.95 430.372 1104.27 431.368Z" fill="url(#paint3_linear_153_35)"/>
<path d="M1118.83 474.652C1121.93 480.223 1120.77 482.943 1119.8 483.606L1121.74 487.089H1119.8C1123.68 495.05 1126.26 493.723 1127.07 492.064L1123.68 489.079L1125.62 485.597C1128.72 496.741 1138.88 495.547 1143.56 493.557L1144.53 494.552L1147.93 491.567L1145.5 488.084C1147.06 482.114 1151.98 475.978 1154.24 473.656L1153.75 460.721L1150.36 457.239V452.263L1147.93 448.283C1149.87 448.283 1151.01 444.634 1151.33 442.81L1152.78 441.815L1151.33 432.362C1145.89 431.964 1143.24 429.211 1142.59 427.885C1144.53 422.312 1139.2 420.588 1136.29 420.422L1128.53 426.89C1127.75 430.869 1123.68 438.498 1121.74 441.815L1123.68 446.292L1121.74 448.283V444.8L1120.28 444.303C1119.89 440.322 1117.53 440.986 1116.4 441.815V446.292L1118.34 449.278C1115.24 448.88 1116.4 455.082 1117.37 458.233C1115.43 457.039 1117.53 468.681 1118.83 474.652Z" fill="url(#paint4_linear_153_35)"/>
<path d="M188.948 215.941C186.231 213.952 175.527 209.805 170.515 207.981L171 905.503H643.458C646.174 894.358 638.122 888.919 633.756 887.592L632.301 876.149C624.152 877.741 619.527 846.961 618.234 831.373C620.174 817.442 604.49 793.063 596.406 782.615C593.689 768.685 586.542 768.188 583.309 769.68V766.695C576.712 771.869 575.386 765.534 575.548 761.72L558.57 747.291C547.705 750.475 544.989 737.341 544.989 730.376C542.272 729.58 539.976 717.44 539.168 711.47C539.944 699.928 538.198 694.72 537.227 693.559C539.944 692.764 538.36 680.624 537.227 674.654C541.884 670.275 538.198 663.211 535.772 660.226V653.758C532.28 647.788 533.024 641.32 533.832 638.832L539.168 648.285L542.078 644.803C523.063 629.28 521.867 609.479 523.645 601.519L507.638 590.573C507.638 588.583 501.494 583.773 498.422 581.618C497.646 576.045 493.248 572.662 491.146 571.668C479.116 573.26 476.109 568.019 476.109 565.199C473.78 565.199 472.228 562.214 471.743 560.722C472.131 558.334 470.288 554.088 469.318 552.264H474.168L467.862 550.772L463.012 533.856C464.952 531.468 464.79 527.886 464.467 526.393C462.527 523.209 463.659 520.423 464.467 519.428C466.795 520.224 471.905 520.091 474.168 519.925V517.437C469.124 516.642 459.454 505.498 455.251 500.025L448.46 493.06V488.582L436.818 465.199L430.997 459.228L422.266 439.328C418.385 437.338 408.684 418.93 404.318 409.974L397.042 398.033V394.054C395.878 392.859 398.498 391.234 399.953 390.57L394.132 380.62C389.475 374.65 395.102 375.48 398.498 376.64L394.132 374.153L386.371 370.172V365.694C382.102 364.102 380.065 359.061 379.58 356.739C380.744 354.749 379.095 350.271 378.125 348.282L382.49 350.271C383.654 346.69 362.279 325.893 351.446 315.943C351.834 311.565 348.697 307.817 347.08 306.49L341.259 299.027C345.916 288.678 335.439 277.137 329.618 272.659C328.065 267.485 333.175 262.211 335.924 260.221C333.595 251.464 338.187 256.573 340.774 260.221C340.774 257.435 334.63 244.466 331.558 238.33C328.065 233.554 324.929 228.048 323.797 225.892C327.289 222.708 323.635 220.917 321.371 220.419C327.192 216.44 323.15 215.113 320.401 214.947L322.827 206.987C320.498 199.424 326.06 198.86 329.133 199.524C325.252 197.932 313.61 189.241 308.275 185.095L294.208 189.076C284.506 177.534 263.972 183.604 254.917 188.08L242.79 189.076C241.238 196.24 234.382 195.709 231.149 194.549C221.447 205.295 198.972 213.289 188.948 215.941Z" fill="url(#paint5_linear_153_35)"/>
</g>
<rect x="3" width="168" height="906" fill="#9A9B9B"/>
<rect x="1568" width="168" height="906" fill="#9A9B9B"/>
<path d="M189.5 212.988C186.7 211.007 5.16667 205.889 0 204.073V908.5L657.5 905C660.3 893.905 652.5 882.994 648 881.673L646.5 870.281C638.1 871.866 633.333 841.222 632 825.702C634 811.833 617.833 787.562 609.5 777.16C606.7 763.291 599.333 762.796 596 764.282V761.31C589.2 766.461 587.833 760.154 588 756.357L570.5 741.992C559.3 745.162 556.5 732.086 556.5 725.151C553.7 724.359 551.333 712.273 550.5 706.329C551.3 694.838 549.5 689.653 548.5 688.497C551.3 687.705 549.667 675.619 548.5 669.675C553.3 665.316 549.5 658.283 547 655.311V648.872C543.4 642.928 544.167 636.489 545 634.012L550.5 643.423L553.5 639.956C533.9 624.502 532.667 604.788 534.5 596.863L518 585.966C518 583.984 511.667 579.196 508.5 577.05C507.7 571.502 503.167 568.134 501 567.144C488.6 568.729 485.5 563.511 485.5 560.704C483.1 560.704 481.5 557.732 481 556.246C481.4 553.869 479.5 549.642 478.5 547.826H483.5L477 546.34L472 529.499C474 527.122 473.833 523.555 473.5 522.069C471.5 518.899 472.667 516.125 473.5 515.135C475.9 515.927 481.167 515.795 483.5 515.63V513.153C478.3 512.361 468.333 501.266 464 495.817L457 488.883V484.425L445 461.145L439 455.201L430 435.388C426 433.407 416 415.08 411.5 406.164L404 394.276V390.314C402.8 389.125 405.5 387.507 407 386.846L401 376.94C396.2 370.996 402 371.822 405.5 372.977L401 370.501L393 366.538V362.08C388.6 360.495 386.5 355.476 386 353.164C387.2 351.183 385.5 346.725 384.5 344.744L389 346.725C390.2 343.159 368.167 322.454 357 312.548C357.4 308.189 354.167 304.458 352.5 303.137L346.5 295.707C351.3 285.404 340.5 273.913 334.5 269.455C332.9 264.304 338.167 259.053 341 257.072C338.6 248.354 343.333 253.44 346 257.072C346 254.298 339.667 241.387 336.5 235.278C332.9 230.523 329.667 225.041 328.5 222.895C332.1 219.725 328.333 217.942 326 217.446C332 213.484 327.833 212.163 325 211.998L327.5 204.073C325.1 196.544 330.833 195.982 334 196.643C330 195.058 318 186.406 312.5 182.278L298 186.241C288 174.75 266.833 180.793 257.5 185.25L245 186.241C243.4 193.374 236.333 192.845 233 191.69C223 202.389 199.833 210.347 189.5 212.988Z" fill="url(#paint6_linear_153_35)"/>
<path d="M480.786 38.8635C485.434 26.2932 478.049 2.78249 474.175 0H1736V474.989C1732.9 475.382 1558.94 465.403 1557.16 463.602C1554.45 463.995 1546.67 461.802 1543.12 460.656C1538.08 461.049 1536.82 457.874 1536.82 456.237C1533.34 451.13 1530.53 454.109 1529.56 456.237L1531.01 460.165L1523.27 456.237H1511.65L1505.83 457.71L1500.99 454.273L1494.21 456.237L1487.44 452.309C1475.43 460.951 1464.03 453.291 1459.84 448.381H1454.03C1448.99 444.845 1435.14 446.907 1428.85 448.381C1423.04 437.087 1415.29 446.907 1416.26 445.434C1417.03 444.256 1414.64 441.67 1413.35 440.524C1398.25 442.095 1394.47 434.959 1394.47 431.195C1390.98 430.802 1390.76 425.139 1391.08 422.356C1386.82 419.606 1385.75 412.699 1385.75 409.589C1390.01 398.198 1378.81 384.547 1372.68 379.146C1369.58 380.717 1357.51 379.146 1351.86 378.164C1351.86 379.735 1346.37 380.455 1343.63 380.619C1340.92 386.118 1329.91 387.493 1324.74 387.493C1326.29 400.456 1314.74 398.787 1308.77 396.332L1290.85 407.134H1281.65C1279.71 402.813 1274.39 403.042 1271.97 403.697L1267.12 398.296L1254.54 396.823C1244.46 401.537 1236.14 395.841 1233.23 392.403C1234.39 388.082 1231.13 386.347 1229.36 386.02L1207.08 378.164L1194.01 368.834L1197.88 367.361C1196.72 367.754 1190.94 361.305 1188.2 358.031C1186.26 359.21 1183.2 357.54 1181.91 356.558C1179.19 356.951 1172.71 351.812 1169.8 349.193C1150.05 354.3 1143.49 347.065 1142.69 342.81C1139.59 342.024 1138.81 340.191 1138.81 339.372V332.498C1131.06 328.963 1128.81 316.294 1128.64 310.402L1125.74 307.947C1121.09 307.161 1118.31 302.709 1117.51 300.581L1111.21 292.725C1113.54 285.261 1110.24 279.467 1108.31 277.503L1089.42 257.862C1091.75 251.184 1087.81 248.532 1085.55 248.041C1080.51 251.577 1074.41 251.151 1071.99 250.496C1071.22 253.246 1064.57 256.552 1061.34 257.862C1060.21 255.734 1057.56 251.282 1056.01 250.496C1054.46 249.711 1046.01 248.532 1041.97 248.041L1035.68 241.658C1044.97 253.443 1036 256.061 1030.35 255.898L1027.45 259.335C1027.45 257.371 1021.96 255.57 1019.21 254.916L1014.86 248.532L1017.76 255.898L1021.64 257.862C1023.96 259.04 1023.25 260.972 1022.6 261.79L1007.11 254.916L1014.86 266.209L1006.14 277.012C1003.82 275.048 998.072 274.884 995.489 275.048L988.226 282.413H991.131L992.1 285.359C1001.78 277.11 1003.88 290.106 1003.72 297.635C1007.98 299.206 1010.34 305.492 1010.98 308.438C1013.31 306.474 1015.18 314.494 1015.83 318.749H988.226L982.416 310.893L984.352 305.492L977.09 296.653L937.869 291.743L934.48 293.707L859.429 286.341L747.095 197.956L719.496 184.699L674.465 157.692L624.109 146.89L615.393 155.237L532.111 178.326L571.331 224.963L556.805 233.31L550.994 249.039L518.553 254.932C513.517 266.324 496.28 279.794 488.533 285.359L463.354 278.994L442.05 275.539C438.176 272.396 431.397 286.996 428.492 294.689C431.591 302.153 422.682 321.368 417.84 330.043C421.713 339.471 414.935 347.72 411.061 350.666L410.093 354.594C408.156 350.666 404.121 351.321 402.345 352.139C402.733 350.568 398.633 347.229 396.535 345.756C382.009 344.283 385.398 330.043 381.041 329.552C377.554 329.159 369.904 321.204 366.515 317.276C367.16 311.22 367.58 299.01 364.094 298.617C360.607 298.224 357.476 294.198 356.347 292.234C352.086 290.27 349.406 283.886 348.599 280.94L345.21 279.958C347.147 274.851 338.915 254.588 334.558 245.095L329.715 237.73C327.456 235.275 323.421 229.775 325.358 227.418C327.295 225.061 323.905 224.145 321.968 223.981C328.166 218.874 323.905 217.925 321 218.089L323.421 210.232C320.709 205.911 324.551 203.194 326.81 202.376H329.715L330.684 205.322C334.945 204.536 339.238 208.268 340.852 210.232L347.631 211.214C348.018 209.25 350.375 208.759 351.504 208.759C355.765 208.759 359.413 205.813 360.704 204.34L365.062 210.232C370.485 206.697 375.392 206.795 377.167 207.286C382.977 207.679 393.146 205.486 397.503 204.34C423.456 198.055 437.046 153.928 440.597 132.65H446.407C446.407 122.044 450.927 117.755 453.186 116.937C450.087 115.366 455.123 106.789 458.028 102.697L463.354 92.3855V86.4932L468.681 85.5111C468.293 70.9767 479.817 60.4687 485.628 57.0315C479.817 49.9607 479.979 41.9733 480.786 38.8635Z" fill="url(#paint7_linear_153_35)"/>
<defs>
<linearGradient id="paint0_linear_153_35" x1="1137.51" y1="411.964" x2="1137.51" y2="906" gradientUnits="userSpaceOnUse">
<stop stop-color="#053B50"/>
<stop offset="1" stop-color="#176B87"/>
</linearGradient>
<linearGradient id="paint1_linear_153_35" x1="944.201" y1="9.47193" x2="944.201" y2="469.179" gradientUnits="userSpaceOnUse">
<stop stop-color="#053B50"/>
<stop offset="1" stop-color="#176B87"/>
</linearGradient>
<linearGradient id="paint2_linear_153_35" x1="371.334" y1="8.97424" x2="371.334" y2="53.2534" gradientUnits="userSpaceOnUse">
<stop stop-color="#053B50"/>
<stop offset="1" stop-color="#176B87"/>
</linearGradient>
<linearGradient id="paint3_linear_153_35" x1="1107.6" y1="417.78" x2="1107.6" y2="436.395" gradientUnits="userSpaceOnUse">
<stop stop-color="#053B50"/>
<stop offset="1" stop-color="#176B87"/>
</linearGradient>
<linearGradient id="paint4_linear_153_35" x1="1135.28" y1="420.422" x2="1135.28" y2="494.859" gradientUnits="userSpaceOnUse">
<stop stop-color="#053B50"/>
<stop offset="1" stop-color="#176B87"/>
</linearGradient>
<linearGradient id="paint5_linear_153_35" x1="407.26" y1="182.428" x2="407.26" y2="905.503" gradientUnits="userSpaceOnUse">
<stop stop-color="#053B50"/>
<stop offset="1" stop-color="#176B87"/>
</linearGradient>
<linearGradient id="paint6_linear_153_35" x1="414.532" y1="179.623" x2="414.532" y2="899.505" gradientUnits="userSpaceOnUse">
<stop stop-color="#053B50"/>
<stop offset="1" stop-color="#176B87"/>
</linearGradient>
<linearGradient id="paint7_linear_153_35" x1="943.68" y1="14.8033" x2="943.68" y2="468.543" gradientUnits="userSpaceOnUse">
<stop stop-color="#053B50"/>
<stop offset="1" stop-color="#176B87"/>
</linearGradient>
<clipPath id="clip0_153_35">
<rect width="1397" height="906" fill="white" transform="translate(171)"/>
</clipPath>
</defs>
</svg>
