<svg width="144" height="126" viewBox="0 0 144 126" fill="none" xmlns="http://www.w3.org/2000/svg">
<path d="M88 61V0C133.071 9.53985 143.437 44.6416 142.986 61H88Z" fill="white"/>
<circle cx="120" cy="44" r="5" fill="#053B50"/>
<path d="M124 42H139.622L141 46H124V42Z" fill="#053B50"/>
<ellipse cx="109" cy="32.5" rx="4" ry="4.5" fill="#053B50"/>
<circle cx="96.5" cy="41.5" r="4.5" fill="#053B50"/>
<rect x="108" y="35" width="2" height="26" fill="#053B50"/>
<rect x="88" y="40" width="5" height="2" fill="#053B50"/>
<path d="M92.9412 20.1774V1L95 1.46774V22.5161C94.6706 26.2581 90.0588 29.2204 88 30V26.2581C91.2941 24.3871 92.8039 21.4247 92.9412 20.1774Z" fill="#053B50"/>
<path d="M83 9.43991V0.314227C72.7846 -1.87594 51.0769 7.91896 41.5 13.0902L44.6923 19.4782C37.3956 19.8432 29.7949 42.1403 26.9066 53.2432C25.0824 51.7831 20.674 52.6348 18.6978 53.2432L0 61H83V50.5055C73.8791 51.6006 50.0128 52.7869 39.2198 53.2432C40.6791 26.9612 69.0147 13.0902 83 9.43991Z" fill="white"/>
<path d="M83 48.7041V15C59.7273 17.5166 46.6364 40.0159 43 50.951C45.9091 51.3105 70.8788 49.6029 83 48.7041Z" fill="white"/>
<path d="M84.2703 103.132C57.0703 104.229 48.7387 79.5013 47.973 67H25V73.8605L41.5405 77.062C41.9081 82.1845 45.982 89.2584 47.973 92.155L38.3243 105.419L47.973 114.109L61.7568 103.132C65.4324 108.254 72.4775 109.84 75.5405 109.992L79.2162 126H90.2432L93 109.992C99.9838 110.724 106.631 105.724 109.081 103.132L123.784 114.109L131.135 105.419L120.568 92.155C124.978 89.2279 127 80.8734 127.459 77.062L144 73.8605V67H120.568C119.832 95.9054 96.0631 103.132 84.2703 103.132Z" fill="white"/>
</svg>
